HIERARCHY
ROOT Hips
{
	OFFSET	0.00	0.00	0.00
	CHANNELS 6 Xposition Yposition Zposition Zrotation Xrotation Yrotation
	JOINT LeftUpLeg
	{
		OFFSET	 0.126116	-0.014019	-0.065224
		CHANNELS 3 Zrotation Xrotation Yrotation
		JOINT LeftLeg
		{
			OFFSET	 0.000000	 0.000000	 0.569914
			CHANNELS 3 Zrotation Xrotation Yrotation
			JOINT LeftFoot
			{
				OFFSET	 0.000000	 0.000000	 0.544423
				CHANNELS 3 Zrotation Xrotation Yrotation
				JOINT LeftToeBase
				{
					OFFSET	 0.000000	 0.000000	 0.207117
					CHANNELS 3 Zrotation Xrotation Yrotation
					End Site
					{
						OFFSET	 0.000000	 0.000000	 0.207117
					}
				}
			}
		}
	}
	JOINT RightUpLeg
	{
		OFFSET	-0.124023	-0.008373	-0.065224
		CHANNELS 3 Zrotation Xrotation Yrotation
		JOINT RightLeg
		{
			OFFSET	 0.000000	 0.000000	 0.570047
			CHANNELS 3 Zrotation Xrotation Yrotation
			JOINT RightFoot
			{
				OFFSET	 0.000000	 0.000000	 0.544354
				CHANNELS 3 Zrotation Xrotation Yrotation
				JOINT RightToeBase
				{
					OFFSET	 0.000000	 0.000000	 0.207540
					CHANNELS 3 Zrotation Xrotation Yrotation
					End Site
					{
						OFFSET	 0.000000	 0.000000	 0.207540
					}
				}
			}
		}
	}
	JOINT Spine
	{
		OFFSET	 0.000184	-0.007763	 0.117403
		CHANNELS 3 Zrotation Xrotation Yrotation
		JOINT Spine1
		{
			OFFSET	 0.000000	 0.000000	 0.137269
			CHANNELS 3 Zrotation Xrotation Yrotation
			JOINT Spine2
			{
				OFFSET	 0.000000	 0.000000	 0.156879
				CHANNELS 3 Zrotation Xrotation Yrotation
				JOINT LeftShoulder
				{
					OFFSET	 0.080501	-0.002496	 0.160144
					CHANNELS 3 Zrotation Xrotation Yrotation
					JOINT LeftArm
					{
						OFFSET	 0.000000	 0.000000	 0.164363
						CHANNELS 3 Zrotation Xrotation Yrotation
						JOINT LeftForeArm
						{
							OFFSET	 0.000000	 0.000000	 0.364576
							CHANNELS 3 Zrotation Xrotation Yrotation
							JOINT LeftHand
							{
								OFFSET	 0.000000	 0.000000	 0.360812
								CHANNELS 3 Zrotation Xrotation Yrotation
								JOINT LeftHandIndex1
								{
									OFFSET	 0.000000	 0.000000	 0.086006
									CHANNELS 3 Zrotation Xrotation Yrotation
									JOINT LeftHandIndex2
									{
										OFFSET	 0.000000	 0.000000	 0.047237
										CHANNELS 3 Zrotation Xrotation Yrotation
										JOINT LeftHandIndex3
										{
											OFFSET	-0.004284	-0.000551	 0.038165
											CHANNELS 3 Zrotation Xrotation Yrotation
											End Site
											{
												OFFSET	-0.004284	-0.000551	 0.038165
											}
										}
									}
								}
							}
						}
					}
				}
				JOINT Neck
				{
					OFFSET	 0.000000	 0.000000	 0.176489
					CHANNELS 3 Zrotation Xrotation Yrotation
					JOINT Head
					{
						OFFSET	 0.000000	-0.001747	 0.077940
						CHANNELS 3 Zrotation Xrotation Yrotation
						End Site
						{
							OFFSET	 0.000000	-0.001747	 0.077940
						}
					}
				}
				JOINT RightShoulder
				{
					OFFSET	-0.080363	 0.000306	 0.159706
					CHANNELS 3 Zrotation Xrotation Yrotation
					JOINT RightArm
					{
						OFFSET	 0.000000	 0.000000	 0.164196
						CHANNELS 3 Zrotation Xrotation Yrotation
						JOINT RightForeArm
						{
							OFFSET	 0.000000	 0.000000	 0.365611
							CHANNELS 3 Zrotation Xrotation Yrotation
							JOINT RightHand
							{
								OFFSET	 0.000000	 0.000000	 0.360648
								CHANNELS 3 Zrotation Xrotation Yrotation
								JOINT RightHandIndex1
								{
									OFFSET	 0.000000	 0.000000	 0.069977
									CHANNELS 3 Zrotation Xrotation Yrotation
									JOINT RightHandIndex2
									{
										OFFSET	 0.000000	 0.000000	 0.052305
										CHANNELS 3 Zrotation Xrotation Yrotation
										JOINT RightHandIndex3
										{
											OFFSET	 0.009002	-0.000782	 0.042196
											CHANNELS 3 Zrotation Xrotation Yrotation
											End Site
											{
												OFFSET	 0.009002	-0.000782	 0.042196
											}
										}
									}
								}
							}
						}
					}
				}
			}
		}
	}
}
MOTION
Frames:    6
Frame Time: 0.03333334
-0.721560	-0.006099	 1.272183	-179.954600	 0.306726	 0.125808	-7.543549	-1.921176	 179.237500	 9.228896	-11.715040	 1.586025	-35.990960	 70.580120	 15.103630	-2.385833	 28.452760	 0.000004	 2.491847	-3.024894	-179.533300	-9.282377	-13.140370	-2.076559	 29.954140	 71.579440	-14.214030	 2.384659	 28.388700	-0.000001	 2.780635	 4.020125	-0.946960	 1.074649	-2.867038	 3.682629	-3.590662	 4.738353	-3.811110	-91.776210	 78.527420	-180.000000	-8.050393	-9.844854	-10.108810	-7.628020	-0.093489	-0.491644	 10.898090	-0.477786	-5.901059	-4.130354	 21.526190	 0.991307	-5.167926	 0.731697	 3.519349	-1.378229	 35.397820	-2.634230	-0.000002	-3.783157	-0.089647	-1.892346	-4.317627	-0.071342	 89.782050	 78.203830	-180.000000	 6.381474	-12.746620	 10.050480	 5.234189	-0.057616	 0.493129	-7.518034	-0.902511	 7.098981	 5.716295	 19.173350	-3.684826	 5.027458	 0.246833	-9.377971	-2.350882	 35.473990	 5.254307
-0.717506	-0.006028	 1.273121	-176.588100	-6.202022	 0.012618	 11.241660	 5.822804	 176.476500	-5.608811	-7.787346	-0.963103	-3.985818	 68.647930	-3.377896	-2.385833	 28.452760	 0.000004	-9.292891	 4.332856	-177.881500	 3.157483	-12.622640	 0.738987	 4.954570	 71.040890	 0.240704	 2.384659	 28.388700	-0.000001	 3.238260	 6.434685	-2.526080	 3.226803	 13.955740	 8.348390	-11.962530	-10.759490	-11.559440	-91.776180	 78.527380	-180.000000	 0.550320	-7.839133	-8.338856	-14.214190	-0.036413	-0.498890	-1.212311	-10.598460	-2.258281	-4.130354	 21.526190	 0.991307	-5.167926	 0.731697	 3.519349	-1.378229	 35.397820	-2.634230	-8.953785	 1.373771	 4.154913	-7.417341	-17.598580	-6.011131	 89.782100	 78.203890	 180.000000	 34.264990	-7.783359	 16.113740	 7.949209	-0.033982	 0.492112	 25.948220	 58.122300	 8.444571	 5.716295	 19.173350	-3.684826	 5.027458	 0.246833	-9.377971	-2.350882	 35.473990	 5.254307
-0.717361	-0.006019	 1.273155	-176.461000	-6.409704	 0.008378	 11.975840	 6.064224	 176.300300	-6.064547	-7.595586	-1.000746	-2.728779	 68.049250	-4.213950	-2.385833	 28.452760	 0.000004	-9.676962	 4.580055	-177.781500	 3.496395	-12.557940	 0.809218	 4.433345	 70.398540	 0.451508	 2.384659	 28.388700	-0.000001	 3.228709	 6.609663	-2.568168	 3.301484	 14.284520	 8.485271	-12.261570	-11.078150	-11.843790	-91.776210	 78.527420	-180.000000	 1.028737	-7.789670	-8.262868	-14.437610	-0.034659	-0.502469	-1.693728	-11.070240	-2.269464	-4.130354	 21.526190	 0.991307	-5.167926	 0.731697	 3.519349	-1.378229	 35.397820	-2.634230	-9.233518	 1.498394	 4.374948	-7.659969	-17.890800	-6.342676	 89.782070	 78.203870	-180.000000	 35.886260	-7.360967	 16.384350	 8.241417	-0.031607	 0.494781	 29.196820	 59.658210	 5.800519	 5.716295	 19.173350	-3.684826	 5.027458	 0.246833	-9.377971	-2.350882	 35.473990	 5.254307
-0.717248	-0.006012	 1.273180	-176.360000	-6.572753	 0.004846	 12.548390	 6.254261	 176.159700	-6.418674	-7.440444	-1.027102	-1.762433	 67.580790	-4.855749	-2.385833	 28.452760	 0.000004	-9.976434	 4.774561	-177.701200	 3.759737	-12.505220	 0.863144	 4.034565	 69.897000	 0.609207	 2.384659	 28.388700	-0.000001	 3.218938	 6.751818	-2.599273	 3.359578	 14.530750	 8.589363	-12.494290	-11.319140	-12.064170	-91.776180	 78.527430	-180.000000	 1.435546	-7.755636	-8.201700	-14.606610	-0.033261	-0.501916	-2.066499	-11.442070	-2.282785	-4.130354	 21.526190	 0.991307	-5.167926	 0.731697	 3.519349	-1.378229	 35.397820	-2.634230	-9.452191	 1.593790	 4.550459	-7.850449	-18.113640	-6.609851	 89.782000	 78.203830	-179.999900	 37.216870	-7.003497	 16.597640	 8.469740	-0.029625	 0.495046	 32.018270	 60.734160	 3.430833	 5.716295	 19.173350	-3.684826	 5.027458	 0.246833	-9.377971	-2.350882	 35.473990	 5.254307
-0.717254	-0.006007	 1.273174	-176.330600	-6.574147	 0.018253	 12.495450	 6.224126	 176.154600	-6.386097	-7.500213	-1.030977	-1.863748	 67.634560	-4.782036	-2.385833	 28.452760	 0.000004	-9.932183	 4.793220	-177.723900	 3.729823	-12.486590	 0.855380	 4.189737	 69.919120	 0.469973	 2.384659	 28.388700	-0.000001	 3.182194	 6.764133	-2.642013	 3.339350	 14.472520	 8.647071	-12.460720	-11.229960	-12.064950	-91.776170	 78.527430	 180.000000	 1.404171	-7.757583	-8.209121	-14.491430	-0.034260	-0.502264	-2.040846	-11.403580	-2.294617	-4.130354	 21.526190	 0.991307	-5.167926	 0.731697	 3.519349	-1.378229	 35.397820	-2.634230	-9.436515	 1.578461	 4.591295	-7.831128	-18.036320	-6.688622	 89.782070	 78.203890	-180.000000	 37.055710	-7.045790	 16.575770	 8.470155	-0.029600	 0.494488	 31.615420	 60.671770	 4.425490	 5.716295	 19.173350	-3.684826	 5.027458	 0.246833	-9.377971	-2.350882	 35.473990	 5.254307
-0.717260	-0.006002	 1.273166	-176.294300	-6.575731	 0.034541	 12.431170	 6.188406	 176.148300	-6.346332	-7.570767	-1.035279	-1.986151	 67.698790	-4.692708	-2.385833	 28.452760	 0.000004	-9.878188	 4.815806	-177.751700	 3.693393	-12.464070	 0.845966	 4.379401	 69.946180	 0.300115	 2.384659	 28.388700	-0.000001	 3.137235	 6.778168	-2.693701	 3.314982	 14.402970	 8.716434	-12.419910	-11.121900	-12.065620	-91.776270	 78.527350	-179.999900	 1.358670	-7.758609	-8.221263	-14.350730	-0.035283	-0.499740	-2.010481	-11.355750	-2.308620	-4.130354	 21.526190	 0.991307	-5.167926	 0.731697	 3.519349	-1.378229	 35.397820	-2.634230	-9.417371	 1.559791	 4.641095	-7.807425	-17.942190	-6.784790	 89.782060	 78.203850	-180.000000	 36.856460	-7.097672	 16.548570	 8.470757	-0.029533	 0.493213	 31.130850	 60.596070	 5.632645	 5.716295	 19.173350	-3.684826	 5.027458	 0.246833	-9.377971	-2.350882	 35.473990	 5.254307
